<?xml version="1.0" encoding="UTF-8" standalone="no"?>
<!-- Created with Inkscape (http://www.inkscape.org/) -->

<svg
   width="118.79791mm"
   height="119.0625mm"
   viewBox="0 0 118.79791 119.0625"
   version="1.1"
   id="svg1"
   xml:space="preserve"
   xmlns:xlink="http://www.w3.org/1999/xlink"
   xmlns="http://www.w3.org/2000/svg"
   xmlns:svg="http://www.w3.org/2000/svg"><defs
     id="defs1"><linearGradient
       id="linearGradient23"><stop
         style="stop-color:#00d692;stop-opacity:1;"
         offset="0"
         id="stop24" /><stop
         style="stop-color:#0dc2d3;stop-opacity:1;"
         offset="1"
         id="stop25" /></linearGradient><linearGradient
       id="swatch11"><stop
         style="stop-color:#000000;stop-opacity:1;"
         offset="0"
         id="stop12" /></linearGradient><linearGradient
       xlink:href="#linearGradient23"
       id="linearGradient25"
       x1="68.344566"
       y1="52.160763"
       x2="131.55241"
       y2="111.45603"
       gradientUnits="userSpaceOnUse" /></defs><g
     id="layer1"><path
       id="rect1"
       style="fill:url(#linearGradient25);fill-opacity:1;stroke-width:0.284;stroke-dasharray:none;paint-order:stroke fill markers"
       d="M 59.21875,22.330078 A 16.970691,16.970691 0 0 0 42.25,39.298828 V 123.25 a 16.970691,16.970691 0 0 0 16.96875,16.96875 h 84.30664 A 16.970691,16.970691 0 0 0 160.49414,123.25 V 39.298828 a 16.970691,16.970691 0 0 0 -16.96875,-16.96875 z"
       transform="translate(-41.971261,-22.052695)" /><g
       style="fill:none;stroke:#ffffff;stroke-width:2;stroke-linecap:round;stroke-linejoin:round;stroke-opacity:1"
       id="g25"
       transform="matrix(3.7827566,0,0,3.6205706,14.038918,14.949632)"><circle
         cx="6"
         cy="6"
         r="3"
         id="circle1"
         style="stroke:#ffffff;stroke-opacity:1" /><path
         d="M 8.12,8.12 12,12"
         id="path1"
         style="stroke:#ffffff;stroke-opacity:1" /><path
         d="M 20,4 8.12,15.88"
         id="path2"
         style="stroke:#ffffff;stroke-opacity:1" /><circle
         cx="6"
         cy="18"
         r="3"
         id="circle2"
         style="stroke:#ffffff;stroke-opacity:1" /><path
         d="M 14.8,14.8 20,20"
         id="path3"
         style="stroke:#ffffff;stroke-opacity:1" /></g></g></svg>
